<svg width="400" height="250" viewBox="0 0 400 250"
     onload="init(evt)"
     xmlns="http://www.w3.org/2000/svg"
     xmlns:xlink="http://www.w3.org/1999/xlink">
    <defs>
        <g id="point_fly" isEdit="false" class="edit-active" stroke="black" fill="blue" >
            <line x1="10" y1="10" x2="54" y2="30" stroke="black" stroke-width="2"></line>
            <line x1="10" y1="30" x2="54" y2="10" stroke="black" stroke-width="2"></line>
            <line x1="32" y1="20" x2="32" y2="40" stroke="black" stroke-width="2"></line>
            <polygon points="32,40 16,56 48,56" fill="none" stroke-width="2"></polygon>
            <g id="fly-control" class="control-group" style="display:none">
                <circle cx="0" cy="0" r="3" stroke-width="1"></circle>
                <circle cx="32" cy="0" r="3" stroke-width="1"></circle>
                <circle cx="64" cy="0" r="3" stroke-width="1"></circle>
                <circle cx="64" cy="32" r="3" stroke-width="1"></circle>
                <circle cx="64" cy="64" r="3" stroke-width="1"></circle>
                <circle cx="32" cy="64" r="3" stroke-width="1"></circle>
                <circle cx="0" cy="64" r="3" stroke-width="1"></circle>
                <circle cx="0" cy="32" r="3" stroke-width="1"></circle>
            </g>
        </g>
        <g id="point/fly" isEdit="false" stroke="black" fill="blue" >
            <line x1="10" y1="10" x2="54" y2="30" stroke="black" stroke-width="2"></line>
            <line x1="10" y1="30" x2="54" y2="10" stroke="black" stroke-width="2"></line>
            <line x1="32" y1="20" x2="32" y2="40" stroke="black" stroke-width="2"></line>
            <polygon points="32,40 16,56 48,56" fill="none" stroke-width="2"></polygon>
            <g id="fly-control" class="control-group" style="display:none">
                <circle cx="0" cy="0" r="3" stroke-width="1"></circle>
                <circle cx="32" cy="0" r="3" stroke-width="1"></circle>
                <circle cx="64" cy="0" r="3" stroke-width="1"></circle>
                <circle cx="64" cy="32" r="3" stroke-width="1"></circle>
                <circle cx="64" cy="64" r="3" stroke-width="1"></circle>
                <circle cx="32" cy="64" r="3" stroke-width="1"></circle>
                <circle cx="0" cy="64" r="3" stroke-width="1"></circle>
                <circle cx="0" cy="32" r="3" stroke-width="1"></circle>
            </g>
        </g>

        <g id="point/people" isEdit="false" stroke="black" fill="blue" >
            <circle cx="32" cy="20" r="10" fill="none" stroke="black" stroke-width="2"></circle>
            <line x1="32" y1="30" x2="10" y2="50" stroke-width="2"></line>
            <line x1="32" y1="30" x2="54" y2="50" stroke-width="2"></line>
            <line x1="32" y1="40" x2="32" y2="60" stroke-width="2"></line>
            <g class="control-group" id="people-control" style="display:none">
                <circle cx="0" cy="0" r="3" stroke-width="1"></circle>
                <circle cx="32" cy="0" r="3" stroke-width="1"></circle>
                <circle cx="64" cy="0" r="3" stroke-width="1"></circle>
                <circle cx="64" cy="32" r="3" stroke-width="1"></circle>
                <circle cx="64" cy="64" r="3" stroke-width="1"></circle>
                <circle cx="32" cy="64" r="3" stroke-width="1"></circle>
                <circle cx="0" cy="64" r="3" stroke-width="1"></circle>
                <circle cx="0" cy="32" r="3" stroke-width="1"></circle>
            </g>
        </g>

        <g id="point/ship" isEdit="false" stroke="black" fill="blue" >
            <path d="M 25 16 A 16, 16 0 1 ,0 25 ,48"
                  fill="none" stroke="black" stroke-width="2"></path>
            <line x1="25" y1="16" x2="56" y2="16" stroke-width="2"></line>
            <line x1="25" y1="48" x2="56" y2="48" stroke-width="2"></line>
            <line x1="56" y1="16" x2="56" y2="48" stroke-width="2"></line>
            <g class="control-group" id="ship-control" style="display:none">
                <circle cx="0" cy="0" r="3" stroke-width="1"></circle>
                <circle cx="32" cy="0" r="3" stroke-width="1"></circle>
                <circle cx="64" cy="0" r="3" stroke-width="1"></circle>
                <circle cx="64" cy="32" r="3" stroke-width="1"></circle>
                <circle cx="64" cy="64" r="3" stroke-width="1"></circle>
                <circle cx="32" cy="64" r="3" stroke-width="1"></circle>
                <circle cx="0" cy="64" r="3" stroke-width="1"></circle>
                <circle cx="0" cy="32" r="3" stroke-width="1"></circle>
            </g>

        </g>
    </defs>

    <!--<use xlink:href="#point_fly" x="20" y="145"/>-->
</svg>